<svg xmlns="http://www.w3.org/2000/svg" width="24" height="24" fill="none" class="h-10 w-10 shrink-0" viewBox="0 0 24 24"><g clip-path="url(#clip0_195_4118)"><path fill="url(#paint0_linear_195_4118)" d="M10.2679 4.7887C11.0377 3.45536 12.9622 3.45536 13.732 4.7887L20.7756 16.9886C21.5454 18.3219 20.5832 19.9886 19.0436 19.9886H4.95635C3.41675 19.9886 2.4545 18.3219 3.2243 16.9886L10.2679 4.7887Z"/><g filter="url(#filter0_i_195_4118)"><path fill="#B9DDFF" fill-opacity=".8" d="M11.1341 13.3799C11.519 12.7132 12.4812 12.7132 12.8661 13.3799L15.811 18.4806C16.1959 19.1473 15.7148 19.9806 14.945 19.9806H9.05519C8.28539 19.9806 7.80426 19.1473 8.18916 18.4806L11.1341 13.3799Z"/></g></g><defs><filter id="filter0_i_195_4118" width="7.893" height="7.201" x="8.054" y="12.88" color-interpolation-filters="sRGB" filterUnits="userSpaceOnUse"><feFlood flood-opacity="0" result="BackgroundImageFix"/><feBlend in="SourceGraphic" in2="BackgroundImageFix" mode="normal" result="shape"/><feColorMatrix in="SourceAlpha" result="hardAlpha" type="matrix" values="0 0 0 0 0 0 0 0 0 0 0 0 0 0 0 0 0 0 127 0"/><feOffset dy=".2"/><feGaussianBlur stdDeviation=".05"/><feComposite in2="hardAlpha" k2="-1" k3="1" operator="arithmetic"/><feColorMatrix type="matrix" values="0 0 0 0 1 0 0 0 0 1 0 0 0 0 1 0 0 0 1 0"/><feBlend in2="shape" mode="normal" result="effect1_innerShadow_195_4118"/></filter><linearGradient id="paint0_linear_195_4118" x1="3.352" x2="21.862" y1="20.82" y2="12.479" gradientUnits="userSpaceOnUse"><stop stop-color="#2567FF"/><stop offset="1" stop-color="#22A7FF"/></linearGradient><clipPath id="clip0_195_4118"><rect width="24" height="24" fill="#fff"/></clipPath></defs></svg>