<svg xmlns="http://www.w3.org/2000/svg" width="24" height="24" fill="none" class="h-10 w-10 shrink-0" viewBox="0 0 24 24"><g filter="url(#filter0_i_195_4030)"><path fill="#EBA4D2" fill-opacity=".8" d="M4.96973 4.5C4.96973 3.67157 5.6413 3 6.46973 3H17.0755C17.9039 3 18.5755 3.67157 18.5755 4.5V19.5C18.5755 20.3284 17.9039 21 17.0755 21H6.46973C5.6413 21 4.96973 20.3284 4.96973 19.5V4.5Z"/></g><path fill="url(#paint0_linear_195_4030)" d="M21.5778 13.6275C22.2445 14.0124 22.2445 14.9747 21.5778 15.3596L15.6488 18.7827C14.9822 19.1676 14.1488 18.6865 14.1488 17.9167L14.1488 11.0705C14.1488 10.3007 14.9822 9.81952 15.6488 10.2044L21.5778 13.6275Z"/><path stroke="#fff" stroke-linecap="round" stroke-width="1.5" d="M8.77258 7L14.7726 7.0001"/><path stroke="#fff" stroke-linecap="round" stroke-width="1.5" d="M8.77258 10L11.7726 10.0001"/><defs><filter id="filter0_i_195_4030" width="13.606" height="18.1" x="4.97" y="3" color-interpolation-filters="sRGB" filterUnits="userSpaceOnUse"><feFlood flood-opacity="0" result="BackgroundImageFix"/><feBlend in="SourceGraphic" in2="BackgroundImageFix" mode="normal" result="shape"/><feColorMatrix in="SourceAlpha" result="hardAlpha" type="matrix" values="0 0 0 0 0 0 0 0 0 0 0 0 0 0 0 0 0 0 127 0"/><feOffset dy=".2"/><feGaussianBlur stdDeviation=".05"/><feComposite in2="hardAlpha" k2="-1" k3="1" operator="arithmetic"/><feColorMatrix type="matrix" values="0 0 0 0 1 0 0 0 0 1 0 0 0 0 1 0 0 0 1 0"/><feBlend in2="shape" mode="normal" result="effect1_innerShadow_195_4030"/></filter><linearGradient id="paint0_linear_195_4030" x1="12.999" x2="26.017" y1="3.956" y2="19.31" gradientUnits="userSpaceOnUse"><stop stop-color="#F4009F"/><stop offset="1" stop-color="#F856C8"/></linearGradient></defs></svg>