<svg xmlns="http://www.w3.org/2000/svg" width="24" height="24" fill="none" class="h-10 w-10 shrink-0" viewBox="0 0 24 24"><rect width="8.999" height="8.999" x="12.002" y="12.501" fill="url(#paint0_linear_195_3994)" rx="1.5"/><g filter="url(#filter0_i_195_3994)"><path fill="#BFB5FF" fill-opacity=".8" d="M5 18C3.89543 18 3 17.1046 3 16L3 5C3 3.89543 3.89543 3 5 3L16 3C17.1046 3 18 3.89543 18 5L18 16C18 17.1046 17.1046 18 16 18L5 18Z"/></g><path stroke="#fff" stroke-linecap="round" stroke-linejoin="round" stroke-width="1.5" d="M6.10608 9.20007C7.27946 8.04993 8.85702 7.4057 10.5001 7.4057C12.1431 7.4057 13.7207 8.04993 14.8941 9.20007"/><path stroke="#fff" stroke-linecap="round" stroke-linejoin="round" stroke-width="1.5" d="M8.30289 11.3971C8.88958 10.822 9.67836 10.4999 10.4999 10.4999C11.3214 10.4999 12.1102 10.822 12.6969 11.3971"/><path stroke="#fff" stroke-linecap="round" stroke-linejoin="round" stroke-width="2" d="M10.5 13.5941H10.5058"/><defs><filter id="filter0_i_195_3994" width="15" height="15.276" x="3" y="3" color-interpolation-filters="sRGB" filterUnits="userSpaceOnUse"><feFlood flood-opacity="0" result="BackgroundImageFix"/><feBlend in="SourceGraphic" in2="BackgroundImageFix" mode="normal" result="shape"/><feColorMatrix in="SourceAlpha" result="hardAlpha" type="matrix" values="0 0 0 0 0 0 0 0 0 0 0 0 0 0 0 0 0 0 127 0"/><feOffset dy=".276"/><feGaussianBlur stdDeviation=".138"/><feComposite in2="hardAlpha" k2="-1" k3="1" operator="arithmetic"/><feColorMatrix type="matrix" values="0 0 0 0 1 0 0 0 0 1 0 0 0 0 1 0 0 0 1 0"/><feBlend in2="shape" mode="normal" result="effect1_innerShadow_195_3994"/></filter><linearGradient id="paint0_linear_195_3994" x1="13.509" x2="30.323" y1="19.875" y2="14.065" gradientUnits="userSpaceOnUse"><stop stop-color="#3F2DAF"/><stop offset="1" stop-color="#917FFB"/></linearGradient></defs></svg>