<svg xmlns="http://www.w3.org/2000/svg" width="24" height="24" fill="none" class="h-10 w-10 shrink-0" viewBox="0 0 24 24"><circle cx="7.607" cy="12.5" r="4.607" fill="url(#paint0_linear_195_4078)"/><g filter="url(#filter0_bi_195_4078)"><path fill="#BFB5FF" fill-opacity=".8" fill-rule="evenodd" d="M21 7.36067C20.9998 4.95232 18.2081 3 14.7644 3C11.3206 3 8.52887 4.95242 8.52887 7.36085C8.52887 7.36402 8.52887 7.36718 8.52888 7.37035V16.639C8.52888 16.6391 8.52888 16.6391 8.52888 16.6392C8.52888 19.0476 11.3206 21 14.7644 21C18.2082 21 21 19.0476 21 16.6392C21 16.6391 21 16.6391 21 16.639V7.36067H21Z" clip-rule="evenodd"/></g><path stroke="#fff" stroke-linecap="round" stroke-linejoin="round" stroke-width="1.5" d="M10.6782 9.802V9.802C13.1432 11.482 16.3855 11.482 18.8505 9.80197V9.80197"/><path stroke="#fff" stroke-linecap="round" stroke-linejoin="round" stroke-width="1.5" d="M10.6782 14.5669V14.5669C13.1432 16.2469 16.3855 16.2469 18.8505 14.5669V14.5669"/><defs><filter id="filter0_bi_195_4078" width="16.471" height="22" x="6.529" y="1" color-interpolation-filters="sRGB" filterUnits="userSpaceOnUse"><feFlood flood-opacity="0" result="BackgroundImageFix"/><feGaussianBlur in="BackgroundImageFix" stdDeviation="1"/><feComposite in2="SourceAlpha" operator="in" result="effect1_backgroundBlur_195_4078"/><feBlend in="SourceGraphic" in2="effect1_backgroundBlur_195_4078" mode="normal" result="shape"/><feColorMatrix in="SourceAlpha" result="hardAlpha" type="matrix" values="0 0 0 0 0 0 0 0 0 0 0 0 0 0 0 0 0 0 127 0"/><feOffset dy=".2"/><feGaussianBlur stdDeviation=".05"/><feComposite in2="hardAlpha" k2="-1" k3="1" operator="arithmetic"/><feColorMatrix type="matrix" values="0 0 0 0 1 0 0 0 0 1 0 0 0 0 1 0 0 0 1 0"/><feBlend in2="shape" mode="normal" result="effect2_innerShadow_195_4078"/></filter><linearGradient id="paint0_linear_195_4078" x1="4.543" x2="21.76" y1="15.444" y2="9.495" gradientUnits="userSpaceOnUse"><stop stop-color="#3F2DAF"/><stop offset="1" stop-color="#917FFB"/></linearGradient></defs></svg>