<svg xmlns="http://www.w3.org/2000/svg" width="24" height="24" fill="none" class="h-10 w-10 shrink-0" viewBox="0 0 24 24"><rect width="16" height="10" x="21.543" y="11.279" fill="url(#paint0_linear_327_3)" rx="1.5" transform="rotate(152.102 21.5427 11.2789)"/><g filter="url(#filter0_bi_327_3)"><path fill="#B9DDFF" fill-opacity=".8" d="M3 10.9371C3 9.83256 3.89543 8.93713 5 8.93713H17C18.1046 8.93713 19 9.83256 19 10.9371V18.9371C19 20.0417 18.1046 20.9371 17 20.9371H5C3.89543 20.9371 3 20.0417 3 18.9371V10.9371Z"/></g><path stroke="#fff" stroke-linecap="round" stroke-linejoin="round" d="M4.98647 12H8.10913C8.69614 12 9.24374 12.2955 9.56604 12.7861V12.7861C10.2546 13.8342 11.7913 13.8342 12.4799 12.7861V12.7861C12.8022 12.2955 13.3498 12 13.9368 12H17.0142"/><defs><filter id="filter0_bi_327_3" width="20" height="16" x="1" y="6.937" color-interpolation-filters="sRGB" filterUnits="userSpaceOnUse"><feFlood flood-opacity="0" result="BackgroundImageFix"/><feGaussianBlur in="BackgroundImageFix" stdDeviation="1"/><feComposite in2="SourceAlpha" operator="in" result="effect1_backgroundBlur_327_3"/><feBlend in="SourceGraphic" in2="effect1_backgroundBlur_327_3" mode="normal" result="shape"/><feColorMatrix in="SourceAlpha" result="hardAlpha" type="matrix" values="0 0 0 0 0 0 0 0 0 0 0 0 0 0 0 0 0 0 127 0"/><feOffset dy=".2"/><feGaussianBlur stdDeviation=".05"/><feComposite in2="hardAlpha" k2="-1" k3="1" operator="arithmetic"/><feColorMatrix type="matrix" values="0 0 0 0 1 0 0 0 0 1 0 0 0 0 1 0 0 0 1 0"/><feBlend in2="shape" mode="normal" result="effect2_innerShadow_327_3"/></filter><linearGradient id="paint0_linear_327_3" x1="34.371" x2="22.84" y1="15.468" y2="21.062" gradientUnits="userSpaceOnUse"><stop stop-color="#2567FF"/><stop offset="1" stop-color="#22A7FF"/></linearGradient></defs></svg>